%FSDAX44Y44*%
%MOMM*%
%SFA1B1*%

%IPPOS*%
%ADD10C,0.499999*%
%ADD12C,0.499999*%
%ADD13C,0.999998*%
%ADD14C,0.799998*%
%ADD15C,0.499999*%
%ADD17C,0.999998*%
%ADD19C,1.523997*%
%ADD20C,1.999996*%
%ADD21O,4.499991X1.999996*%
%ADD22C,1.269997*%
%ADD23C,0.799998*%
%LNpcb1_copper_signal_bot-1*%
%LPD*%
G54D10*
X00631698Y00931672D02*
X00640080Y00923290D01*
Y00913130D02*
Y00923290D01*
G54D12*
X00938530Y00753110D02*
X00941070Y00755650D01*
X00863600Y00753110D02*
X00938530D01*
X00856361Y00760349D02*
X00863600Y00753110D01*
X00867410Y00853440D02*
X00882650Y00838200D01*
X00643382Y00853440D02*
X00867410D01*
X00640334Y00856488D02*
X00643382Y00853440D01*
X01094740Y00887730D02*
Y00889000D01*
X01045210Y00838200D02*
X01094740Y00887730D01*
X00882650Y00838200D02*
X01045210D01*
X00677102Y00918655D02*
X00694436Y00935990D01*
X00640334Y00881888D02*
X00677102Y00918655D01*
X00694436Y00935990D02*
X00712470D01*
X01160526Y00702564D02*
X01176401D01*
X01126490Y00736600D02*
X01160526Y00702564D01*
X01092200Y00736600D02*
X01126490D01*
X01042670Y00687070D02*
X01092200Y00736600D01*
X01003300Y00687070D02*
X01042670D01*
G54D13*
X00728293Y00868680D02*
Y00900581D01*
X00724532Y00948052D02*
X00752472D01*
X00702893Y00926413D02*
X00724532Y00948052D01*
X00702893Y00900581D02*
Y00926413D01*
X00847413Y01042993D02*
X00894883Y01090463D01*
X01037400*
X00752472Y00948052D02*
X00847413Y01042993D01*
X01105662Y01032129D02*
X01128649Y01055116D01*
Y01093089*
X01087374Y01134364D02*
X01128649Y01093089D01*
X00840486Y01134364D02*
X01087374D01*
X01106297Y01073404D02*
Y01090549D01*
Y01062913D02*
Y01073404D01*
X01100784Y01057402D02*
X01106297Y01062913D01*
X01088009Y01108837D02*
X01106297Y01090549D01*
X00840105Y01108583D02*
X00840359Y01108837D01*
X01088009*
G54D14*
X00667512Y00825500D02*
X01065530D01*
X00655320Y00813308D02*
X00667512Y00825500D01*
X01065530D02*
X01090930Y00850900D01*
X01145921Y00905891D02*
X01156208D01*
X01090930Y00850900D02*
X01145921Y00905891D01*
X00655320Y00771017D02*
Y00813308D01*
X00884047Y00770890D02*
X00909955Y00796798D01*
X00740791Y01030859D02*
X00787295D01*
X00770763Y00767207D02*
Y00771017D01*
Y00757682D02*
X00787400Y00741045D01*
X00770763Y00757682D02*
Y00767207D01*
G54D15*
X01156081Y00905764D02*
X01156208Y00905891D01*
X00787295Y01030859D02*
X00787400Y01030963D01*
G54D17*
X01072966Y00811530D02*
X01075400Y00813963D01*
X01033780Y00811530D02*
X01072966D01*
X00944851Y00722601D02*
X01033780Y00811530D01*
X00772851Y00721047D02*
X00944851Y00722601D01*
X00772160Y00720344D02*
X00772851Y00721047D01*
X00722757Y00769747D02*
X00772160Y00720344D01*
G54D19*
X01075400Y00813963D03*
X01176401Y00702564D03*
X00640334Y00907288D03*
X00740791Y01030859D03*
X00640334Y00856488D03*
Y00881888D03*
X01156081Y00905764D03*
X01100784Y01057402D03*
X00840105Y01108583D03*
X00840486Y01134364D03*
X01105662Y01032129D03*
X01037400Y01090463D03*
X00728293Y00868680D03*
X00776351Y01134745D03*
Y01109345D03*
Y01083945D03*
X00808355Y01134618D03*
Y01109218D03*
Y01083818D03*
X00728293Y00900581D03*
X00702893D03*
X00744474Y01134618D03*
Y01109218D03*
Y01083818D03*
X01176401Y00753364D03*
Y00804164D03*
Y00829564D03*
Y00854964D03*
Y00880364D03*
Y00905764D03*
X01024001D03*
Y00880364D03*
Y00854964D03*
Y00778764D03*
Y00753364D03*
Y00727964D03*
Y00702564D03*
Y00931164D03*
Y00956564D03*
Y00981964D03*
Y01007364D03*
Y01032764D03*
Y01058164D03*
X01176401Y00931164D03*
Y00778764D03*
X00689991Y01030859D03*
X00719963Y00771017D03*
X01073785Y01057910D03*
Y01032510D03*
X01048385Y01057910D03*
Y01032510D03*
X00643890Y01028700D03*
X00645160Y00989330D03*
X00909955Y00796798D03*
X00787400Y00741045D03*
X00773430Y00721614D03*
X00753693Y00900581D03*
X01176401Y00727964D03*
X00884047Y00770890D03*
X00833247D03*
X00770763Y00771017D03*
X00655320D03*
X00604520D03*
X00790920Y00797453D03*
X00787400Y01030963D03*
X00791210Y00948690D03*
G54D20*
X01122680Y00708660D03*
X01075835Y00786293D03*
Y00692293D03*
X00811530Y01008380D03*
G54D21*
X00765810Y00670560D03*
X00767080Y00614680D03*
G54D22*
X00857250Y00759460D03*
X01094740Y00889000D03*
X01003300Y00687070D03*
X00941070Y00755650D03*
G54D23*
X00604520Y00904494D02*
X00689991Y00989965D01*
X00719963Y00774573D02*
X00740664Y00795274D01*
X00808863D02*
X00833247Y00770890D01*
X00740664Y00795274D02*
X00808863D01*
X00703580Y00755650D02*
X00718947Y00771017D01*
X00604520Y00751967D02*
X00616204Y00740283D01*
X00688848*
X00703580Y00755650*
X00604520Y00751967D02*
Y00771017D01*
X00689991Y00989965D02*
Y01030859D01*
X00604520Y00771017D02*
Y00904494D01*
M02*