%FSDAX44Y44*%
%MOMM*%
%SFA1B1*%

%IPPOS*%
%ADD10C,0.499999*%
%ADD11C,0.499999*%
%ADD12C,0.499999*%
%ADD13C,0.999998*%
%ADD14C,0.799998*%
%ADD15C,0.499999*%
%ADD16C,0.699999*%
%ADD17C,0.999998*%
%ADD18C,0.999998*%
%ADD19C,1.523997*%
%ADD20C,1.999996*%
%ADD21O,4.499991X1.999996*%
%ADD22C,1.269997*%
%LNpcb1_copper_signal_top-1*%
%LPD*%
G36*
X01050884Y01019885D02*
X01053996Y01021174D01*
X01058043Y01022850*
X01064125*
X01068173Y01021174*
X01073785Y01018849*
X01080630Y01021685*
X01097895*
X01105662Y01018468*
X01107131Y01019077*
X01116578Y01013452*
X01117332Y01005759*
X01110330Y00998757*
X01107476Y00991870*
Y00906701*
X01097476Y00900150*
X01094740Y00901284*
X01092890Y00900518*
X01082890Y00907200*
Y00932714*
X01080037Y00939602*
X01037648Y00981992*
X01033659Y00991622*
Y00997704*
X01037660Y01007364*
X01035108Y01013524*
X01039651Y01018357*
X01040733Y01020266*
X01042432Y01021315*
X01045884Y01019885*
Y01032510*
X01050884*
Y01019885*
G37*
G36*
X00667342Y01035289D02*
X00676330Y01030859D01*
X00680331Y01021199*
X00687490Y01018234*
Y01030859*
X00692490*
Y01018234*
X00699649Y01021199*
X00700328Y01022838*
X00712123Y01025184*
X00729861Y01007447*
X00726653Y00997447*
X00655456*
X00654818Y00998988*
X00645160Y01002989*
X00635500Y00998988*
X00631499Y00989330*
X00635500Y00979670*
X00645160Y00975669*
X00654818Y00979670*
X00655456Y00981211*
X00747206*
X00778187Y00950230*
X00777549Y00948690*
X00781550Y00939030*
X00791210Y00935029*
X00792750Y00935667*
X00814841Y00913576*
Y00826770*
X00817219Y00821029*
X00842861Y00795386*
X00842293Y00791625*
X00833247Y00784549*
X00823587Y00780548*
X00820622Y00773389*
X00833247*
Y00770890*
X00835746*
Y00758259*
X00843994Y00759333*
X00847669Y00752928*
X00848334Y00751324*
X00848562Y00750772*
X00857250Y00747174*
X00857801Y00747402*
X00865936Y00750772*
X00867647Y00754904*
X00872286Y00759258*
X00881769Y00757556*
X00885344Y00747990*
X00874550Y00737196*
X00805023*
X00800976Y00741243*
X00797058Y00750703*
X00787400Y00754704*
X00786433Y00754304*
X00781061Y00762903*
X00784422Y00771017*
X00782099Y00776623*
X00788420Y00782944*
Y00794953*
X00778296*
X00779583Y00791846*
X00771929Y00784192*
X00770763Y00784676*
X00761103Y00780675*
X00757102Y00771017*
X00761103Y00761357*
X00770763Y00757356*
X00771728Y00757756*
X00777100Y00749157*
X00773739Y00741045*
X00766495Y00732401*
X00763770Y00731272*
X00760805Y00724113*
X00773430*
Y00721614*
X00775929*
Y00708989*
X00783088Y00711954*
X00784694Y00715831*
X00793221Y00720124*
X00796328Y00719644*
X00800989Y00717713*
X00878586*
X00885473Y00720567*
X00919545Y00754639*
X00930516Y00751467*
X00932382Y00746962*
X00932951Y00746726*
Y00740410*
X00935329Y00734669*
X00975334Y00694664*
X00988669Y00681329*
X00994370Y00678967*
X00994612Y00678382*
X00991092Y00669016*
X00819600*
X00815390Y00667272*
X00810390Y00662272*
X00808647Y00658063*
Y00608846*
X00802880Y00607224*
X00795815Y00614680*
X00791059Y00626160*
X00779579Y00630915*
X00769579*
Y00614680*
X00764579*
Y00630915*
X00754579*
X00743099Y00626160*
X00740553Y00620014*
X00730553Y00622004*
Y00658363*
X00728810Y00662572*
X00723810Y00667572*
X00719600Y00669316*
X00688666*
X00687153Y00670829*
Y00709363*
X00685410Y00713573*
X00680509Y00718473*
X00676300Y00720217*
X00587253*
Y00755898*
X00597253Y00760366*
X00602019Y00758392*
Y00771017*
Y00783640*
X00597253Y00781666*
X00587253Y00786134*
Y00990697*
X00604003Y01007447*
X00621119Y01024563*
X00622349Y01024318*
X00632914Y01022216*
X00633346Y01021174*
X00634230Y01019040*
X00643890Y01015039*
X00653548Y01019040*
X00657549Y01028700*
X00664664Y01035552*
X00667342Y01035289*
G37*
G36*
X01092890Y00845077D02*
X01104848Y00833120D01*
X01110751Y00827216*
Y00785495*
X01113129Y00779754*
X01131653Y00761230*
X01132678Y00760205*
X01128536Y00750205*
X01085435*
X01074821Y00760818*
X01078585Y00771196*
X01087316Y00774813*
X01091035Y00783793*
X01075835*
Y00788793*
X01091035*
X01088503Y00794907*
X01085059Y00804304*
X01088024Y00811463*
X01075400*
Y00816463*
X01088024*
X01085059Y00823622*
X01082890Y00833120*
Y00840935*
X01092890Y00845077*
G37*
%LNpcb1_copper_signal_top-2*%
%LPC*%
G36*
X00753693Y00914241D02*
X00744034Y00910240D01*
X00737952*
X00728293Y00914241*
X00718634Y00910240*
X00712552*
X00702893Y00914241*
X00693234Y00910240*
X00689233Y00900581*
X00693234Y00890922*
X00702893Y00886922*
X00710828Y00890208*
X00714618Y00888627*
X00715358Y00887805*
X00718634Y00878338*
X00714633Y00868680*
X00717386Y00862034*
X00716941Y00826228*
X00692623Y00801911*
X00674509Y00783796*
X00664978Y00780675*
X00655320Y00784676*
X00645660Y00780675*
X00641659Y00771017*
X00645660Y00761357*
X00655320Y00757356*
X00657101Y00758094*
X00667101Y00753406*
X00670271Y00745753*
X00739531Y00676493*
X00737073Y00670560*
X00741829Y00659079*
X00753309Y00654323*
X00778309*
X00789789Y00659079*
X00794545Y00670560*
X00789789Y00682039*
X00778574Y00686685*
X00778309Y00686795*
X00759844*
X00689080Y00757559*
Y00767753*
X00697695Y00776368*
X00706302Y00771017*
X00710303Y00761357*
X00717462Y00758392*
Y00771017*
X00719963*
Y00773516*
X00732586*
X00729621Y00780675*
X00719963Y00784676*
X00714610Y00793283*
X00735363Y00814035*
X00736924Y00817805*
X00738532Y00821554*
X00739030Y00861623*
X00741953Y00868680*
X00737952Y00878338*
X00740611Y00888061*
X00745758Y00890208*
X00753693Y00886922*
X00763352Y00890922*
X00767353Y00900581*
X00763352Y00910240*
X00753693Y00914241*
G37*
G36*
X00642833Y00919911D02*
Y00909787D01*
X00652957*
X00649992Y00916946*
X00642833Y00919911*
G37*
G36*
X00637833D02*
X00630674Y00916946D01*
X00627709Y00909787*
X00637833*
Y00919911*
G37*
G36*
X00652957Y00904787D02*
X00627709D01*
X00630674Y00897628*
Y00891546*
X00626673Y00881888*
X00630674Y00872228*
Y00866146*
X00626673Y00856488*
X00630674Y00846828*
X00640334Y00842827*
X00649992Y00846828*
X00653993Y00856488*
X00649992Y00866146*
Y00872228*
X00653993Y00881888*
X00649992Y00891546*
Y00897628*
X00652957Y00904787*
G37*
G36*
X00793420Y00810077D02*
Y00799953D01*
X00803544*
X00800579Y00807112*
X00793420Y00810077*
G37*
G36*
X00788420D02*
X00781261Y00807112D01*
X00778296Y00799953*
X00788420*
Y00810077*
G37*
G36*
X00803544Y00794953D02*
X00793420D01*
Y00784829*
X00800579Y00787794*
X00803544Y00794953*
G37*
G36*
X00607019Y00783640D02*
Y00773516D01*
X00617143*
X00614178Y00780675*
X00607019Y00783640*
G37*
G36*
X00732586Y00768516D02*
X00722462D01*
Y00758392*
X00729621Y00761357*
X00732586Y00768516*
G37*
G36*
X00617143D02*
X00607019D01*
Y00758392*
X00614178Y00761357*
X00617143Y00768516*
G37*
G36*
X00830746Y00768389D02*
X00820622D01*
X00823587Y00761230*
X00830746Y00758265*
Y00768389*
G37*
G36*
X00770929Y00719113D02*
X00760805D01*
X00763770Y00711954*
X00770929Y00708989*
Y00719113*
G37*
%LNpcb1_copper_signal_top-3*%
%LPD*%
G54D10*
X01024001Y01032764D02*
D01*
D01*
G75*
G03X01024613Y01032510I613J613D01*
G74*G01*
X01075835Y00786293D02*
Y00813528D01*
G54D11*
X00604520Y00771017D02*
X00604647D01*
X01046861Y01032764D02*
X01047115Y01032510D01*
X01048131Y01032764D02*
X01048385Y01032510D01*
X01075200Y00785348D02*
Y00785658D01*
G54D12*
X01118870Y00785495D02*
Y00830580D01*
X01094740Y00854710D02*
X01118870Y00830580D01*
X01094740Y00854710D02*
Y00889000D01*
X01118870Y00785495D02*
X01176401Y00727964D01*
X00994410Y00687070D02*
X01003300D01*
X00981075Y00700405D02*
X00994410Y00687070D01*
X00941070Y00740410D02*
X00981075Y00700405D01*
X00941070Y00740410D02*
Y00755650D01*
X00645160Y00989330D02*
X00750570D01*
X00737870Y01010920D02*
X00805180D01*
X00698500Y01050290D02*
X00737870Y01010920D01*
X00665480Y01050290D02*
X00698500D01*
X00643890Y01028700D02*
X00665480Y01050290D01*
X00857250Y00760730D02*
Y00792480D01*
X00822960Y00826770D02*
X00857250Y00792480D01*
X00822960Y00826770D02*
Y00916940D01*
X00750570Y00989330D02*
X00822960Y00916940D01*
G54D13*
X00677926Y00753406D02*
Y00771906D01*
X00700278Y00794258*
X00727710Y00821690D02*
X00728293Y00868680D01*
X00700278Y00794258D02*
X00727710Y00821690D01*
X00677926Y00753406D02*
X00757325Y00674006D01*
X01037400Y01090463D02*
X01048385Y01079479D01*
Y01057910D02*
Y01079479D01*
X01024001Y01058164D02*
X01048131D01*
X00744474Y01134618D02*
X00808355D01*
X01073785Y01032510D02*
X01105281D01*
X01105662Y01032129*
X00840232Y01134618D02*
X00840486Y01134364D01*
X00808355Y01134618D02*
X00840232D01*
X01073785Y01057910D02*
X01100276D01*
X00808355Y01109218D02*
X00839470D01*
X00840105Y01108583*
X01100276Y01057910D02*
X01100784Y01057402D01*
X00744474Y01109218D02*
X00808355D01*
G54D14*
X00910590Y01107440D02*
X01097280D01*
X00849630Y01046480D02*
X00910590Y01107440D01*
X00769493Y01046480D02*
X00849630D01*
X00955929Y00804799D02*
X01024509D01*
X00878586Y00727456D02*
X00955929Y00804799D01*
X00814324Y00727456D02*
X00878586D01*
X00862330Y00852170D02*
Y01009650D01*
X00841015Y01030963D02*
X00862330Y01009650D01*
X00787400Y01030963D02*
X00841015D01*
X00862330Y00852170D02*
X00878840Y00835660D01*
X01172845Y00858520D02*
X01176401Y00854964D01*
X01129665Y00858520D02*
X01172845D01*
X01117219Y00870966D02*
X01129665Y00858520D01*
X01089165Y00678963D02*
X01136400D01*
X01151900Y00694463*
Y00723463*
X01075835Y00692293D02*
X01089165Y00678963D01*
X01134900Y00740463D02*
X01151900Y00723463D01*
X01081400Y00740463D02*
X01134900D01*
X01044400Y00777463D02*
X01081400Y00740463D01*
X01175900Y00929963D02*
X01176401Y01109218D01*
X01150239Y00880364D02*
X01176401D01*
X00776351Y01070356D02*
Y01083945D01*
Y01070356D02*
X00784098Y01062609D01*
X00744474Y01071499D02*
Y01083818D01*
X01117219Y00871474D02*
Y00991870D01*
X01156081Y00905764D02*
X01176401D01*
X00787400Y00741045D02*
X00800989Y00727456D01*
X00814324*
X01146429Y01139190D02*
X01176401Y01109218D01*
X01113314Y00717550D02*
X01120570Y00710293D01*
X01004697Y00835660D02*
X01024001Y00854964D01*
X00909955Y00796798D02*
X00933577Y00820420D01*
X01018032*
X01082040Y00717550D02*
X01113314D01*
X01024001Y00775589D02*
X01082040Y00717550D01*
X01024001Y00981863D02*
X01073150Y00932714D01*
X00744474Y01071499D02*
X00769493Y01046480D01*
X00895350Y01139190D02*
X01146429D01*
X00808355Y01083818D02*
X00839978D01*
X00895350Y01139190*
X00784098Y01062609D02*
X00844169D01*
X00905510Y01123950*
X01131824*
X01158240Y01097534*
Y00991870D02*
Y01097534D01*
X01137920Y00892683D02*
X01150239Y00880364D01*
X01137920Y00892683D02*
Y00971550D01*
X01158240Y00991870*
X01117219D02*
X01130300Y01004951D01*
Y01074420*
X01097280Y01107440D02*
X01130300Y01074420D01*
X00878840Y00835660D02*
X01004697D01*
X01044400Y00777463D02*
Y00804370D01*
X01073150Y00833120*
Y00932714*
G54D15*
X01048131Y01058164D02*
X01048385Y01057910D01*
X01048131Y01058164D02*
X01048385Y01057910D01*
X01024001Y00981863D02*
Y00981964D01*
X01117219Y00870966D02*
Y00871474D01*
X01024001Y00905764D02*
X01028954D01*
X01024001Y00880364D02*
X01027176D01*
X01024001Y00775589D02*
Y00778764D01*
G54D16*
X01024509Y00804799D02*
X01057656Y00837946D01*
Y00877062*
X01028954Y00905764D02*
X01057656Y00877062D01*
X01027176Y00880364D02*
X01042416Y00865124D01*
Y00844804D02*
Y00865124D01*
X01018032Y00820420D02*
X01042416Y00844804D01*
G54D17*
X00767080Y00614680D02*
X00805180Y00656900D01*
Y00689332*
X00773430Y00721614D02*
X00805180Y00689332D01*
G54D18*
X01024613Y01032510D02*
X01048385D01*
G54D19*
X01075400Y00813963D03*
X01176401Y00702564D03*
X00640334Y00907288D03*
X00740791Y01030859D03*
X00640334Y00856488D03*
Y00881888D03*
X01156081Y00905764D03*
X01100784Y01057402D03*
X00840105Y01108583D03*
X00840486Y01134364D03*
X01105662Y01032129D03*
X01037400Y01090463D03*
X00728293Y00868680D03*
X00776351Y01134745D03*
Y01109345D03*
Y01083945D03*
X00808355Y01134618D03*
Y01109218D03*
Y01083818D03*
X00728293Y00900581D03*
X00702893D03*
X00744474Y01134618D03*
Y01109218D03*
Y01083818D03*
X01176401Y00753364D03*
Y00804164D03*
Y00829564D03*
Y00854964D03*
Y00880364D03*
Y00905764D03*
X01024001D03*
Y00880364D03*
Y00854964D03*
Y00778764D03*
Y00753364D03*
Y00727964D03*
Y00702564D03*
Y00931164D03*
Y00956564D03*
Y00981964D03*
Y01007364D03*
Y01032764D03*
Y01058164D03*
X01176401Y00931164D03*
Y00778764D03*
X00689991Y01030859D03*
X00719963Y00771017D03*
X01073785Y01057910D03*
Y01032510D03*
X01048385Y01057910D03*
Y01032510D03*
X00643890Y01028700D03*
X00645160Y00989330D03*
X00909955Y00796798D03*
X00787400Y00741045D03*
X00773430Y00721614D03*
X00753693Y00900581D03*
X01176401Y00727964D03*
X00884047Y00770890D03*
X00833247D03*
X00770763Y00771017D03*
X00655320D03*
X00604520D03*
X00790920Y00797453D03*
X00787400Y01030963D03*
X00791210Y00948690D03*
G54D20*
X01122680Y00708660D03*
X01075835Y00786293D03*
Y00692293D03*
X00811530Y01008380D03*
G54D21*
X00765810Y00670560D03*
X00767080Y00614680D03*
G54D22*
X00857250Y00759460D03*
X01094740Y00889000D03*
X01003300Y00687070D03*
X00941070Y00755650D03*
M02*