%FSDAX44Y44*%
%MOMM*%
%SFA1B1*%

%IPPOS*%
%ADD19C,1.523997*%
%ADD20C,1.999996*%
%ADD21O,4.499991X1.999996*%
%LNpcb1_pads_top-1*%
%LPD*%
G54D19*
X01075400Y00813963D03*
X01176401Y00702564D03*
X00640334Y00907288D03*
X00740791Y01030859D03*
X00640334Y00856488D03*
Y00881888D03*
X01156081Y00905764D03*
X01100784Y01057402D03*
X00840105Y01108583D03*
X00840486Y01134364D03*
X01105662Y01032129D03*
X01037400Y01090463D03*
X00728293Y00868680D03*
X00776351Y01134745D03*
Y01109345D03*
Y01083945D03*
X00808355Y01134618D03*
Y01109218D03*
Y01083818D03*
X00728293Y00900581D03*
X00702893D03*
X00744474Y01134618D03*
Y01109218D03*
Y01083818D03*
X01176401Y00753364D03*
Y00804164D03*
Y00829564D03*
Y00854964D03*
Y00880364D03*
Y00905764D03*
X01024001D03*
Y00880364D03*
Y00854964D03*
Y00778764D03*
Y00753364D03*
Y00727964D03*
Y00702564D03*
Y00931164D03*
Y00956564D03*
Y00981964D03*
Y01007364D03*
Y01032764D03*
Y01058164D03*
X01176401Y00931164D03*
Y00778764D03*
X00689991Y01030859D03*
X00719963Y00771017D03*
X01073785Y01057910D03*
Y01032510D03*
X01048385Y01057910D03*
Y01032510D03*
X00643890Y01028700D03*
X00645160Y00989330D03*
X00909955Y00796798D03*
X00787400Y00741045D03*
X00773430Y00721614D03*
X00753693Y00900581D03*
X01176401Y00727964D03*
X00884047Y00770890D03*
X00833247D03*
X00770763Y00771017D03*
X00655320D03*
X00604520D03*
X00790920Y00797453D03*
X00787400Y01030963D03*
X00791210Y00948690D03*
G54D20*
X01122680Y00708660D03*
X01075835Y00786293D03*
Y00692293D03*
G54D21*
X00765810Y00670560D03*
X00767080Y00614680D03*
M02*