%FSDAX44Y44*%
%MOMM*%
%SFA1B1*%

%IPPOS*%
%ADD12C,0.499999*%
%ADD24C,0.150000*%
%ADD25C,0.200000*%
%ADD26C,0.299999*%
%ADD27C,0.100000*%
%ADD28C,0.253999*%
%LNpcb1_legend_top-1*%
%LPD*%
G54D12*
X00790885Y00797453D02*
Y00843127D01*
X00777240D02*
X00803910D01*
X00777240Y00904087D02*
X00803910D01*
Y00843127D02*
Y00904087D01*
X00777240Y00843127D02*
Y00904087D01*
X00791210Y00904240D02*
Y00948537D01*
G54D24*
X00657656Y00839692D02*
Y00855192D01*
X00660456Y00867892D02*
Y00918692D01*
X00625779Y00839565D02*
X00656779D01*
Y00855065*
X00628579Y00867765D02*
X00653979D01*
X00625779Y00839565D02*
Y00855065D01*
X00628579Y00867765D02*
Y00918565D01*
X00653979*
Y00867765D02*
Y00918565D01*
X01033830Y01015587D02*
X01049330D01*
X01033830D02*
Y01031087D01*
X01062030Y01018387D02*
Y01043787D01*
X01036630D02*
X01062030D01*
X01036630D02*
Y01069187D01*
X01087430*
Y01018387D02*
Y01069187D01*
X01062030Y01018387D02*
X01087430D01*
X00668872Y00772251D02*
X00668965Y00769594D01*
X00668594Y00774896D02*
X00668872Y00772251D01*
X00668132Y00777515D02*
X00668594Y00774896D01*
X00667489Y00780095D02*
X00668132Y00777515D01*
X00666667Y00782625D02*
X00667489Y00780095D01*
X00665671Y00785090D02*
X00666667Y00782625D01*
X00664505Y00787481D02*
X00665671Y00785090D01*
X00663175Y00789783D02*
X00664505Y00787481D01*
X00661688Y00791988D02*
X00663175Y00789783D01*
X00660051Y00794084D02*
X00661688Y00791988D01*
X00658272Y00796060D02*
X00660051Y00794084D01*
X00656359Y00797907D02*
X00658272Y00796060D01*
X00654322Y00799617D02*
X00656359Y00797907D01*
X00652170Y00801180D02*
X00654322Y00799617D01*
X00649915Y00802589D02*
X00652170Y00801180D01*
X00647567Y00803838D02*
X00649915Y00802589D01*
X00645137Y00804919D02*
X00647567Y00803838D01*
X00642638Y00805829D02*
X00645137Y00804919D01*
X00640082Y00806562D02*
X00642638Y00805829D01*
X00637481Y00807115D02*
X00640082Y00806562D01*
X00634847Y00807485D02*
X00637481Y00807115D01*
X00632195Y00807670D02*
X00634847Y00807485D01*
X00629535Y00807670D02*
X00632195D01*
X00626882Y00807485D02*
X00629535Y00807670D01*
X00624249Y00807115D02*
X00626882Y00807485D01*
X00621648Y00806562D02*
X00624249Y00807115D01*
X00619091Y00805829D02*
X00621648Y00806562D01*
X00616592Y00804919D02*
X00619091Y00805829D01*
X00614163Y00803838D02*
X00616592Y00804919D01*
X00611815Y00802589D02*
X00614163Y00803838D01*
X00609560Y00801180D02*
X00611815Y00802589D01*
X00607408Y00799617D02*
X00609560Y00801180D01*
X00605371Y00797907D02*
X00607408Y00799617D01*
X00603458Y00796060D02*
X00605371Y00797907D01*
X00601678Y00794084D02*
X00603458Y00796060D01*
X00600041Y00791988D02*
X00601678Y00794084D01*
X00598554Y00789783D02*
X00600041Y00791988D01*
X00597224Y00787481D02*
X00598554Y00789783D01*
X00596059Y00785090D02*
X00597224Y00787481D01*
X00595063Y00782625D02*
X00596059Y00785090D01*
X00594241Y00780095D02*
X00595063Y00782625D01*
X00593598Y00777515D02*
X00594241Y00780095D01*
X00593136Y00774896D02*
X00593598Y00777515D01*
X00592858Y00772251D02*
X00593136Y00774896D01*
X00592765Y00769594D02*
X00592858Y00772251D01*
X00592765Y00769594D02*
X00592858Y00766936D01*
X00593136Y00764291*
X00593598Y00761672*
X00594241Y00759092*
X00595063Y00756563*
X00596059Y00754097*
X00597224Y00751707*
X00598554Y00749404*
X00600041Y00747199*
X00601678Y00745103*
X00603458Y00743127*
X00605371Y00741280*
X00607408Y00739570*
X00609560Y00738007*
X00611815Y00736598*
X00614163Y00735349*
X00616592Y00734268*
X00619091Y00733358*
X00621648Y00732625*
X00624249Y00732072*
X00626882Y00731702*
X00629535Y00731517*
X00632195*
X00634847Y00731702*
X00637481Y00732072*
X00640082Y00732625*
X00642638Y00733358*
X00645137Y00734268*
X00647567Y00735349*
X00649915Y00736598*
X00652170Y00738007*
X00654322Y00739570*
X00656359Y00741280*
X00658272Y00743127*
X00660051Y00745103*
X00661688Y00747199*
X00663175Y00749404*
X00664505Y00751707*
X00665671Y00754097*
X00666667Y00756563*
X00667489Y00759092*
X00668132Y00761672*
X00668594Y00764291*
X00668872Y00766936*
X00668965Y00769594*
X00784315Y00772251D02*
X00784408Y00769594D01*
X00784037Y00774896D02*
X00784315Y00772251D01*
X00783575Y00777515D02*
X00784037Y00774896D01*
X00782932Y00780095D02*
X00783575Y00777515D01*
X00782110Y00782625D02*
X00782932Y00780095D01*
X00781114Y00785090D02*
X00782110Y00782625D01*
X00779948Y00787481D02*
X00781114Y00785090D01*
X00778618Y00789783D02*
X00779948Y00787481D01*
X00777131Y00791988D02*
X00778618Y00789783D01*
X00775494Y00794084D02*
X00777131Y00791988D01*
X00773715Y00796060D02*
X00775494Y00794084D01*
X00771802Y00797907D02*
X00773715Y00796060D01*
X00769764Y00799617D02*
X00771802Y00797907D01*
X00767613Y00801180D02*
X00769764Y00799617D01*
X00765358Y00802589D02*
X00767613Y00801180D01*
X00763010Y00803838D02*
X00765358Y00802589D01*
X00760580Y00804919D02*
X00763010Y00803838D01*
X00758081Y00805829D02*
X00760580Y00804919D01*
X00755525Y00806562D02*
X00758081Y00805829D01*
X00752924Y00807115D02*
X00755525Y00806562D01*
X00750290Y00807485D02*
X00752924Y00807115D01*
X00747637Y00807670D02*
X00750290Y00807485D01*
X00744978Y00807670D02*
X00747637D01*
X00742325Y00807485D02*
X00744978Y00807670D01*
X00739692Y00807115D02*
X00742325Y00807485D01*
X00737091Y00806562D02*
X00739692Y00807115D01*
X00734534Y00805829D02*
X00737091Y00806562D01*
X00732035Y00804919D02*
X00734534Y00805829D01*
X00729606Y00803838D02*
X00732035Y00804919D01*
X00727258Y00802589D02*
X00729606Y00803838D01*
X00725003Y00801180D02*
X00727258Y00802589D01*
X00722851Y00799617D02*
X00725003Y00801180D01*
X00720814Y00797907D02*
X00722851Y00799617D01*
X00718901Y00796060D02*
X00720814Y00797907D01*
X00717121Y00794084D02*
X00718901Y00796060D01*
X00715484Y00791988D02*
X00717121Y00794084D01*
X00713997Y00789783D02*
X00715484Y00791988D01*
X00712668Y00787481D02*
X00713997Y00789783D01*
X00711502Y00785090D02*
X00712668Y00787481D01*
X00710506Y00782625D02*
X00711502Y00785090D01*
X00709684Y00780095D02*
X00710506Y00782625D01*
X00709041Y00777515D02*
X00709684Y00780095D01*
X00708579Y00774896D02*
X00709041Y00777515D01*
X00708301Y00772251D02*
X00708579Y00774896D01*
X00708208Y00769594D02*
X00708301Y00772251D01*
X00708208Y00769594D02*
X00708301Y00766936D01*
X00708579Y00764291*
X00709041Y00761672*
X00709684Y00759092*
X00710506Y00756563*
X00711502Y00754097*
X00712668Y00751707*
X00713997Y00749404*
X00715484Y00747199*
X00717121Y00745103*
X00718901Y00743127*
X00720814Y00741280*
X00722851Y00739570*
X00725003Y00738007*
X00727258Y00736598*
X00729606Y00735349*
X00732035Y00734268*
X00734534Y00733358*
X00737091Y00732625*
X00739692Y00732072*
X00742325Y00731702*
X00744978Y00731517*
X00747637*
X00750290Y00731702*
X00752924Y00732072*
X00755525Y00732625*
X00758081Y00733358*
X00760580Y00734268*
X00763010Y00735349*
X00765358Y00736598*
X00767613Y00738007*
X00769764Y00739570*
X00771802Y00741280*
X00773715Y00743127*
X00775494Y00745103*
X00777131Y00747199*
X00778618Y00749404*
X00779948Y00751707*
X00781114Y00754097*
X00782110Y00756563*
X00782932Y00759092*
X00783575Y00761672*
X00784037Y00764291*
X00784315Y00766936*
X00784408Y00769594*
X00897599Y00772124D02*
X00897692Y00769467D01*
X00897321Y00774769D02*
X00897599Y00772124D01*
X00896859Y00777388D02*
X00897321Y00774769D01*
X00896216Y00779968D02*
X00896859Y00777388D01*
X00895394Y00782498D02*
X00896216Y00779968D01*
X00894398Y00784963D02*
X00895394Y00782498D01*
X00893232Y00787354D02*
X00894398Y00784963D01*
X00891902Y00789657D02*
X00893232Y00787354D01*
X00890415Y00791861D02*
X00891902Y00789657D01*
X00888778Y00793957D02*
X00890415Y00791861D01*
X00886999Y00795933D02*
X00888778Y00793957D01*
X00885086Y00797780D02*
X00886999Y00795933D01*
X00883048Y00799490D02*
X00885086Y00797780D01*
X00880897Y00801053D02*
X00883048Y00799490D01*
X00878642Y00802462D02*
X00880897Y00801053D01*
X00876294Y00803711D02*
X00878642Y00802462D01*
X00873864Y00804792D02*
X00876294Y00803711D01*
X00871365Y00805702D02*
X00873864Y00804792D01*
X00868809Y00806435D02*
X00871365Y00805702D01*
X00866208Y00806988D02*
X00868809Y00806435D01*
X00863574Y00807358D02*
X00866208Y00806988D01*
X00860921Y00807543D02*
X00863574Y00807358D01*
X00858262Y00807543D02*
X00860921D01*
X00855609Y00807358D02*
X00858262Y00807543D01*
X00852976Y00806988D02*
X00855609Y00807358D01*
X00850375Y00806435D02*
X00852976Y00806988D01*
X00847818Y00805702D02*
X00850375Y00806435D01*
X00845319Y00804792D02*
X00847818Y00805702D01*
X00842890Y00803711D02*
X00845319Y00804792D01*
X00840542Y00802462D02*
X00842890Y00803711D01*
X00838287Y00801053D02*
X00840542Y00802462D01*
X00836135Y00799490D02*
X00838287Y00801053D01*
X00834098Y00797780D02*
X00836135Y00799490D01*
X00832185Y00795933D02*
X00834098Y00797780D01*
X00830405Y00793957D02*
X00832185Y00795933D01*
X00828768Y00791861D02*
X00830405Y00793957D01*
X00827281Y00789657D02*
X00828768Y00791861D01*
X00825952Y00787354D02*
X00827281Y00789657D01*
X00824786Y00784963D02*
X00825952Y00787354D01*
X00823790Y00782498D02*
X00824786Y00784963D01*
X00822968Y00779968D02*
X00823790Y00782498D01*
X00822325Y00777388D02*
X00822968Y00779968D01*
X00821863Y00774769D02*
X00822325Y00777388D01*
X00821585Y00772124D02*
X00821863Y00774769D01*
X00821492Y00769467D02*
X00821585Y00772124D01*
X00821492Y00769467D02*
X00821585Y00766809D01*
X00821863Y00764164*
X00822325Y00761545*
X00822968Y00758965*
X00823790Y00756436*
X00824786Y00753970*
X00825952Y00751580*
X00827281Y00749277*
X00828768Y00747072*
X00830405Y00744976*
X00832185Y00743000*
X00834098Y00741153*
X00836135Y00739443*
X00838287Y00737880*
X00840542Y00736471*
X00842890Y00735222*
X00845319Y00734141*
X00847818Y00733231*
X00850375Y00732498*
X00852976Y00731945*
X00855609Y00731575*
X00858262Y00731390*
X00860921*
X00863574Y00731575*
X00866208Y00731945*
X00868809Y00732498*
X00871365Y00733231*
X00873864Y00734141*
X00876294Y00735222*
X00878642Y00736471*
X00880897Y00737880*
X00883048Y00739443*
X00885086Y00741153*
X00886999Y00743000*
X00888778Y00744976*
X00890415Y00747072*
X00891902Y00749277*
X00893232Y00751580*
X00894398Y00753970*
X00895394Y00756436*
X00896216Y00758965*
X00896859Y00761545*
X00897321Y00764164*
X00897599Y00766809*
X00897692Y00769467*
X00754343Y01032093D02*
X00754436Y01029436D01*
X00754065Y01034738D02*
X00754343Y01032093D01*
X00753603Y01037357D02*
X00754065Y01034738D01*
X00752960Y01039937D02*
X00753603Y01037357D01*
X00752138Y01042467D02*
X00752960Y01039937D01*
X00751142Y01044932D02*
X00752138Y01042467D01*
X00749976Y01047323D02*
X00751142Y01044932D01*
X00748646Y01049625D02*
X00749976Y01047323D01*
X00747159Y01051830D02*
X00748646Y01049625D01*
X00745522Y01053926D02*
X00747159Y01051830D01*
X00743743Y01055902D02*
X00745522Y01053926D01*
X00741830Y01057749D02*
X00743743Y01055902D01*
X00739792Y01059459D02*
X00741830Y01057749D01*
X00737641Y01061022D02*
X00739792Y01059459D01*
X00735386Y01062431D02*
X00737641Y01061022D01*
X00733038Y01063680D02*
X00735386Y01062431D01*
X00730608Y01064761D02*
X00733038Y01063680D01*
X00728109Y01065671D02*
X00730608Y01064761D01*
X00725553Y01066404D02*
X00728109Y01065671D01*
X00722952Y01066957D02*
X00725553Y01066404D01*
X00720318Y01067327D02*
X00722952Y01066957D01*
X00717665Y01067512D02*
X00720318Y01067327D01*
X00715006Y01067512D02*
X00717665D01*
X00712353Y01067327D02*
X00715006Y01067512D01*
X00709720Y01066957D02*
X00712353Y01067327D01*
X00707119Y01066404D02*
X00709720Y01066957D01*
X00704562Y01065671D02*
X00707119Y01066404D01*
X00702063Y01064761D02*
X00704562Y01065671D01*
X00699634Y01063680D02*
X00702063Y01064761D01*
X00697286Y01062431D02*
X00699634Y01063680D01*
X00695031Y01061022D02*
X00697286Y01062431D01*
X00692879Y01059459D02*
X00695031Y01061022D01*
X00690842Y01057749D02*
X00692879Y01059459D01*
X00688929Y01055902D02*
X00690842Y01057749D01*
X00687149Y01053926D02*
X00688929Y01055902D01*
X00685512Y01051830D02*
X00687149Y01053926D01*
X00684025Y01049625D02*
X00685512Y01051830D01*
X00682696Y01047323D02*
X00684025Y01049625D01*
X00681530Y01044932D02*
X00682696Y01047323D01*
X00680534Y01042467D02*
X00681530Y01044932D01*
X00679712Y01039937D02*
X00680534Y01042467D01*
X00679069Y01037357D02*
X00679712Y01039937D01*
X00678607Y01034738D02*
X00679069Y01037357D01*
X00678329Y01032093D02*
X00678607Y01034738D01*
X00678236Y01029436D02*
X00678329Y01032093D01*
X00678236Y01029436D02*
X00678329Y01026778D01*
X00678607Y01024133*
X00679069Y01021514*
X00679712Y01018934*
X00680534Y01016405*
X00681530Y01013939*
X00682696Y01011549*
X00684025Y01009246*
X00685512Y01007041*
X00687149Y01004945*
X00688929Y01002969*
X00690842Y01001122*
X00692879Y00999412*
X00695031Y00997849*
X00697286Y00996440*
X00699634Y00995191*
X00702063Y00994110*
X00704562Y00993200*
X00707119Y00992467*
X00709720Y00991914*
X00712353Y00991544*
X00715006Y00991359*
X00717665*
X00720318Y00991544*
X00722952Y00991914*
X00725553Y00992467*
X00728109Y00993200*
X00730608Y00994110*
X00733038Y00995191*
X00735386Y00996440*
X00737641Y00997849*
X00739792Y00999412*
X00741830Y01001122*
X00743743Y01002969*
X00745522Y01004945*
X00747159Y01007041*
X00748646Y01009246*
X00749976Y01011549*
X00751142Y01013939*
X00752138Y01016405*
X00752960Y01018934*
X00753603Y01021514*
X00754065Y01024133*
X00754343Y01026778*
X00754436Y01029436*
X01012246Y00663041D02*
Y01145641D01*
X01190046*
Y00663041D02*
Y01145641D01*
X01012246Y00663041D02*
X01190046D01*
X01140781Y00669871D02*
Y00809871D01*
X01061781D02*
X01140781D01*
X01061781Y00669871D02*
Y00809871D01*
Y00669871D02*
X01140781D01*
X01110007Y00770446D02*
X01110027Y00769871D01*
X01109947Y00771018D02*
X01110007Y00770446D01*
X01109847Y00771585D02*
X01109947Y00771018D01*
X01109708Y00772144D02*
X01109847Y00771585D01*
X01109530Y00772691D02*
X01109708Y00772144D01*
X01109314Y00773225D02*
X01109530Y00772691D01*
X01109062Y00773742D02*
X01109314Y00773225D01*
X01108774Y00774240D02*
X01109062Y00773742D01*
X01108452Y00774718D02*
X01108774Y00774240D01*
X01108098Y00775171D02*
X01108452Y00774718D01*
X01107713Y00775599D02*
X01108098Y00775171D01*
X01107299Y00775999D02*
X01107713Y00775599D01*
X01106858Y00776369D02*
X01107299Y00775999D01*
X01106392Y00776707D02*
X01106858Y00776369D01*
X01105904Y00777012D02*
X01106392Y00776707D01*
X01105396Y00777282D02*
X01105904Y00777012D01*
X01104870Y00777516D02*
X01105396Y00777282D01*
X01104329Y00777713D02*
X01104870Y00777516D01*
X01103776Y00777872D02*
X01104329Y00777713D01*
X01103213Y00777991D02*
X01103776Y00777872D01*
X01102643Y00778072D02*
X01103213Y00777991D01*
X01102069Y00778112D02*
X01102643Y00778072D01*
X01101493Y00778112D02*
X01102069D01*
X01100919Y00778072D02*
X01101493Y00778112D01*
X01100349Y00777991D02*
X01100919Y00778072D01*
X01099786Y00777872D02*
X01100349Y00777991D01*
X01099233Y00777713D02*
X01099786Y00777872D01*
X01098692Y00777516D02*
X01099233Y00777713D01*
X01098166Y00777282D02*
X01098692Y00777516D01*
X01097658Y00777012D02*
X01098166Y00777282D01*
X01097170Y00776707D02*
X01097658Y00777012D01*
X01096704Y00776369D02*
X01097170Y00776707D01*
X01096264Y00775999D02*
X01096704Y00776369D01*
X01095849Y00775599D02*
X01096264Y00775999D01*
X01095464Y00775171D02*
X01095849Y00775599D01*
X01095109Y00774718D02*
X01095464Y00775171D01*
X01094788Y00774240D02*
X01095109Y00774718D01*
X01094500Y00773742D02*
X01094788Y00774240D01*
X01094248Y00773225D02*
X01094500Y00773742D01*
X01094032Y00772691D02*
X01094248Y00773225D01*
X01093854Y00772144D02*
X01094032Y00772691D01*
X01093715Y00771585D02*
X01093854Y00772144D01*
X01093615Y00771018D02*
X01093715Y00771585D01*
X01093555Y00770446D02*
X01093615Y00771018D01*
X01093535Y00769871D02*
X01093555Y00770446D01*
X01093535Y00769871D02*
X01093555Y00769295D01*
X01093615Y00768723*
X01093715Y00768156*
X01093854Y00767598*
X01094032Y00767050*
X01094248Y00766516*
X01094500Y00765999*
X01094788Y00765501*
X01095109Y00765024*
X01095464Y00764570*
X01095849Y00764142*
X01096264Y00763743*
X01096704Y00763372*
X01097170Y00763034*
X01097658Y00762729*
X01098166Y00762459*
X01098692Y00762225*
X01099233Y00762028*
X01099786Y00761869*
X01100349Y00761750*
X01100919Y00761670*
X01101493Y00761629*
X01102069*
X01102643Y00761670*
X01103213Y00761750*
X01103776Y00761869*
X01104329Y00762028*
X01104870Y00762225*
X01105396Y00762459*
X01105904Y00762729*
X01106392Y00763034*
X01106858Y00763372*
X01107299Y00763743*
X01107713Y00764142*
X01108098Y00764570*
X01108452Y00765024*
X01108774Y00765501*
X01109062Y00765999*
X01109314Y00766516*
X01109530Y00767050*
X01109708Y00767598*
X01109847Y00768156*
X01109947Y00768723*
X01110007Y00769295*
X01110027Y00769871*
X01110007Y00700446D02*
X01110027Y00699871D01*
X01109947Y00701018D02*
X01110007Y00700446D01*
X01109847Y00701585D02*
X01109947Y00701018D01*
X01109708Y00702143D02*
X01109847Y00701585D01*
X01109530Y00702691D02*
X01109708Y00702143D01*
X01109314Y00703225D02*
X01109530Y00702691D01*
X01109062Y00703742D02*
X01109314Y00703225D01*
X01108774Y00704240D02*
X01109062Y00703742D01*
X01108452Y00704718D02*
X01108774Y00704240D01*
X01108098Y00705171D02*
X01108452Y00704718D01*
X01107713Y00705599D02*
X01108098Y00705171D01*
X01107299Y00705999D02*
X01107713Y00705599D01*
X01106858Y00706369D02*
X01107299Y00705999D01*
X01106392Y00706707D02*
X01106858Y00706369D01*
X01105904Y00707012D02*
X01106392Y00706707D01*
X01105396Y00707282D02*
X01105904Y00707012D01*
X01104870Y00707517D02*
X01105396Y00707282D01*
X01104329Y00707713D02*
X01104870Y00707517D01*
X01103776Y00707872D02*
X01104329Y00707713D01*
X01103213Y00707991D02*
X01103776Y00707872D01*
X01102643Y00708072D02*
X01103213Y00707991D01*
X01102069Y00708112D02*
X01102643Y00708072D01*
X01101493Y00708112D02*
X01102069D01*
X01100919Y00708072D02*
X01101493Y00708112D01*
X01100349Y00707991D02*
X01100919Y00708072D01*
X01099786Y00707872D02*
X01100349Y00707991D01*
X01099233Y00707713D02*
X01099786Y00707872D01*
X01098692Y00707517D02*
X01099233Y00707713D01*
X01098166Y00707282D02*
X01098692Y00707517D01*
X01097658Y00707012D02*
X01098166Y00707282D01*
X01097170Y00706707D02*
X01097658Y00707012D01*
X01096704Y00706369D02*
X01097170Y00706707D01*
X01096264Y00705999D02*
X01096704Y00706369D01*
X01095849Y00705599D02*
X01096264Y00705999D01*
X01095464Y00705171D02*
X01095849Y00705599D01*
X01095109Y00704718D02*
X01095464Y00705171D01*
X01094788Y00704240D02*
X01095109Y00704718D01*
X01094500Y00703742D02*
X01094788Y00704240D01*
X01094248Y00703225D02*
X01094500Y00703742D01*
X01094032Y00702691D02*
X01094248Y00703225D01*
X01093854Y00702143D02*
X01094032Y00702691D01*
X01093715Y00701585D02*
X01093854Y00702143D01*
X01093615Y00701018D02*
X01093715Y00701585D01*
X01093555Y00700446D02*
X01093615Y00701018D01*
X01093535Y00699871D02*
X01093555Y00700446D01*
X01093535Y00699871D02*
X01093555Y00699295D01*
X01093615Y00698723*
X01093715Y00698156*
X01093854Y00697598*
X01094032Y00697050*
X01094248Y00696517*
X01094500Y00695999*
X01094788Y00695501*
X01095109Y00695024*
X01095464Y00694570*
X01095849Y00694142*
X01096264Y00693743*
X01096704Y00693372*
X01097170Y00693034*
X01097658Y00692729*
X01098166Y00692459*
X01098692Y00692225*
X01099233Y00692028*
X01099786Y00691869*
X01100349Y00691750*
X01100919Y00691670*
X01101493Y00691629*
X01102069*
X01102643Y00691670*
X01103213Y00691750*
X01103776Y00691869*
X01104329Y00692028*
X01104870Y00692225*
X01105396Y00692459*
X01105904Y00692729*
X01106392Y00693034*
X01106858Y00693372*
X01107299Y00693743*
X01107713Y00694142*
X01108098Y00694570*
X01108452Y00695024*
X01108774Y00695501*
X01109062Y00695999*
X01109314Y00696517*
X01109530Y00697050*
X01109708Y00697598*
X01109847Y00698156*
X01109947Y00698723*
X01110007Y00699295*
X01110027Y00699871*
X00758119Y01095095D02*
Y01145895D01*
X00732719D02*
X00758119D01*
X00732719Y01095095D02*
Y01145895D01*
X00729919Y01066895D02*
Y01082395D01*
X00732719Y01095095D02*
X00758119D01*
X00760919Y01066895D02*
Y01082395D01*
X00729919Y01066895D02*
X00760919D01*
X00716539Y00886460D02*
X00767339D01*
Y00911860*
X00716539D02*
X00767339D01*
X00688340Y00914659D02*
X00703839D01*
X00716539Y00886460D02*
Y00911860D01*
X00688340Y00883659D02*
X00703839D01*
X00688340D02*
Y00914659D01*
X00822000Y01095095D02*
Y01145895D01*
X00796600D02*
X00822000D01*
X00796600Y01095095D02*
Y01145895D01*
X00793800Y01066895D02*
Y01082395D01*
X00796600Y01095095D02*
X00822000D01*
X00824800Y01066895D02*
Y01082395D01*
X00793800Y01066895D02*
X00824800D01*
X00789996Y01095222D02*
Y01146022D01*
X00764596D02*
X00789996D01*
X00764596Y01095222D02*
Y01146022D01*
X00761796Y01067022D02*
Y01082522D01*
X00764596Y01095222D02*
X00789996D01*
X00792796Y01067022D02*
Y01082522D01*
X00761796Y01067022D02*
X00792796D01*
G54D25*
X00632135Y01041247D02*
X00661345D01*
Y00975207D02*
Y01041247D01*
X00630865Y00975207D02*
X00661345D01*
X00630865D02*
Y01041247D01*
G54D26*
X01120917Y00998255D02*
Y01013255D01*
X01128060Y00998255D02*
Y01013255D01*
X01136632Y00998255*
Y01013255*
X01143774Y01003969D02*
X01155203D01*
X00833120Y01069060D02*
Y01084060D01*
X00838833*
X00840262Y01083346*
X00840976Y01082632*
X00841690Y01081203*
Y01079060D02*
Y01081203D01*
X00840976Y01077632D02*
X00841690Y01079060D01*
X00840262Y01076918D02*
X00840976Y01077632D01*
X00838833Y01076203D02*
X00840262Y01076918D01*
X00833120Y01076203D02*
X00838833D01*
X00846690Y01084060D02*
X00850262Y01069060D01*
X00853119Y01079775*
X00855976Y01069060*
X00859548Y01084060*
X00865262Y01069060D02*
Y01084060D01*
X00870262Y01073346*
X00875262Y01084060*
Y01069060D02*
Y01084060D01*
X00849912Y01114640D02*
X00854912Y01099640D01*
X00859912Y01114640*
X00864912Y01105355D02*
X00876340D01*
X00870626Y01099640D02*
Y01111069D01*
X00858483Y01140140D02*
X00859912Y01139426D01*
X00856340Y01140140D02*
X00858483D01*
X00854197Y01139426D02*
X00856340Y01140140D01*
X00852769Y01137998D02*
X00854197Y01139426D01*
X00852055Y01136569D02*
X00852769Y01137998D01*
X00851340Y01133712D02*
X00852055Y01136569D01*
X00851340Y01131570D02*
Y01133712D01*
Y01131570D02*
X00852055Y01128712D01*
X00852769Y01127283*
X00854197Y01125855*
X00856340Y01125140*
X00857769*
X00859912Y01125855*
X00860626Y01126569*
Y01131570*
X00857769D02*
X00860626D01*
X00867055Y01125140D02*
Y01140140D01*
X00875626Y01125140*
Y01140140*
X00882769Y01125140D02*
Y01140140D01*
X00886340*
X00888483Y01139426*
X00889912Y01137998*
X00890626Y01136569*
X00891340Y01133712*
Y01131570D02*
Y01133712D01*
X00890626Y01128712D02*
X00891340Y01131570D01*
X00889912Y01127283D02*
X00890626Y01128712D01*
X00888483Y01125855D02*
X00889912Y01127283D01*
X00886340Y01125140D02*
X00888483Y01125855D01*
X00882769Y01125140D02*
X00886340D01*
X01120917Y01074255D02*
Y01089255D01*
X01128060Y01074255D02*
Y01089255D01*
X01136632Y01074255*
Y01089255*
X01143774Y01079969D02*
X01155203D01*
X01149489Y01074255D02*
Y01085683D01*
X01123774Y01038755D02*
X01126632D01*
X01128060Y01038041*
X01129489Y01036612*
X01130203Y01033755*
Y01028755D02*
Y01033755D01*
X01129489Y01025898D02*
X01130203Y01028755D01*
X01128060Y01024469D02*
X01129489Y01025898D01*
X01126632Y01023755D02*
X01128060Y01024469D01*
X01123774Y01023755D02*
X01126632D01*
X01122346Y01024469D02*
X01123774Y01023755D01*
X01120917Y01025898D02*
X01122346Y01024469D01*
X01120203Y01028755D02*
X01120917Y01025898D01*
X01120203Y01028755D02*
Y01033755D01*
X01120917Y01036612*
X01122346Y01038041*
X01123774Y01038755*
X01136632Y01026612D02*
Y01038755D01*
Y01026612D02*
X01137346Y01025183D01*
X01138060Y01024469*
X01139489Y01023755*
X01142346*
X01143774Y01024469*
X01144489Y01025183*
X01145203Y01026612*
Y01038755*
X01150203D02*
X01158774D01*
X01154489Y01023755D02*
Y01038755D01*
X01163774Y01029469D02*
X01175203D01*
X01123774Y01064255D02*
X01126632D01*
X01128060Y01063541*
X01129489Y01062112*
X01130203Y01059255*
Y01054255D02*
Y01059255D01*
X01129489Y01051398D02*
X01130203Y01054255D01*
X01128060Y01049969D02*
X01129489Y01051398D01*
X01126632Y01049255D02*
X01128060Y01049969D01*
X01123774Y01049255D02*
X01126632D01*
X01122346Y01049969D02*
X01123774Y01049255D01*
X01120917Y01051398D02*
X01122346Y01049969D01*
X01120203Y01054255D02*
X01120917Y01051398D01*
X01120203Y01054255D02*
Y01059255D01*
X01120917Y01062112*
X01122346Y01063541*
X01123774Y01064255*
X01136632Y01052112D02*
Y01064255D01*
Y01052112D02*
X01137346Y01050683D01*
X01138060Y01049969*
X01139489Y01049255*
X01142346*
X01143774Y01049969*
X01144489Y01050683*
X01145203Y01052112*
Y01064255*
X01150203D02*
X01158774D01*
X01154489Y01049255D02*
Y01064255D01*
X01163774Y01054969D02*
X01175203D01*
X01169489Y01049255D02*
Y01060683D01*
X00831132Y00966326D02*
X00846132D01*
X00836132Y00973469D02*
X00846132D01*
X00836846Y00974183D02*
X00837560Y00973469D01*
X00836132Y00975612D02*
X00836846Y00974183D01*
X00836132Y00975612D02*
Y00977755D01*
X00836846Y00979183*
X00838274Y00979898*
X00846132*
X00831132Y00993469D02*
X00846132D01*
X00845417D02*
X00846132Y00992041D01*
Y00989183D02*
Y00992041D01*
X00845417Y00987755D02*
X00846132Y00989183D01*
X00844703Y00987041D02*
X00845417Y00987755D01*
X00843274Y00986326D02*
X00844703Y00987041D01*
X00838989Y00986326D02*
X00843274D01*
X00837560Y00987041D02*
X00838989Y00986326D01*
X00836846Y00987755D02*
X00837560Y00987041D01*
X00836132Y00989183D02*
X00836846Y00987755D01*
X00836132Y00989183D02*
Y00992041D01*
X00836846Y00993469*
X00845417Y01006326D02*
X00846132Y01004898D01*
Y01002041D02*
Y01004898D01*
X00845417Y01000612D02*
X00846132Y01002041D01*
X00843989Y00999898D02*
X00845417Y01000612D01*
X00838274Y00999898D02*
X00843989D01*
X00836846Y01000612D02*
X00838274Y00999898D01*
X00836132Y01002041D02*
X00836846Y01000612D01*
X00836132Y01002041D02*
Y01004898D01*
X00836846Y01006326*
X00838274Y01007041*
X00839703*
X00841132Y00999898*
X00836132Y01019898D02*
X00846132Y01012041D01*
X00836132D02*
X00846132Y01019898D01*
X00799132Y00953469D02*
X00814132D01*
X00799132D02*
X00809846Y00958469D01*
X00799132Y00963469D02*
X00809846Y00958469D01*
X00799132Y00963469D02*
X00814132D01*
X00804132Y00970612D02*
X00814132D01*
X00799132D02*
X00799846Y00969899D01*
X00800560Y00970612*
X00799846Y00971326D02*
X00800560Y00970612D01*
X00799132D02*
X00799846Y00971326D01*
X00799132Y00970612D02*
X00800560D01*
X00799132Y00984183D02*
X00814132D01*
X00813417D02*
X00814132Y00982755D01*
Y00979898D02*
Y00982755D01*
X00813417Y00978469D02*
X00814132Y00979898D01*
X00812703Y00977755D02*
X00813417Y00978469D01*
X00811274Y00977041D02*
X00812703Y00977755D01*
X00806989Y00977041D02*
X00811274D01*
X00805561Y00977755D02*
X00806989Y00977041D01*
X00804846Y00978469D02*
X00805561Y00977755D01*
X00804132Y00979898D02*
X00804846Y00978469D01*
X00804132Y00979898D02*
Y00982755D01*
X00804846Y00984183*
X00799132Y00997755D02*
X00814132D01*
X00813417D02*
X00814132Y00996326D01*
Y00993469D02*
Y00996326D01*
X00813417Y00992041D02*
X00814132Y00993469D01*
X00812703Y00991326D02*
X00813417Y00992041D01*
X00811274Y00990612D02*
X00812703Y00991326D01*
X00806989Y00990612D02*
X00811274D01*
X00805561Y00991326D02*
X00806989Y00990612D01*
X00804846Y00992041D02*
X00805561Y00991326D01*
X00804132Y00993469D02*
X00804846Y00992041D01*
X00804132Y00993469D02*
Y00996326D01*
X00804846Y00997755*
X00813417Y01005612D02*
X00814132Y01007041D01*
X00811989Y01004898D02*
X00813417Y01005612D01*
X00799132Y01004898D02*
X00811989D01*
X00813417Y01018469D02*
X00814132Y01017041D01*
Y01014183D02*
Y01017041D01*
X00813417Y01012755D02*
X00814132Y01014183D01*
X00811989Y01012041D02*
X00813417Y01012755D01*
X00806274Y01012041D02*
X00811989D01*
X00804846Y01012755D02*
X00806274Y01012041D01*
X00804132Y01014183D02*
X00804846Y01012755D01*
X00804132Y01014183D02*
Y01017041D01*
X00804846Y01018469*
X00806274Y01019183*
X00807703*
X00809132Y01012041*
X00767131Y00951326D02*
Y00959898D01*
Y00955612D02*
X00782131D01*
X00767131Y00964898D02*
X00782131D01*
X00774274Y00971326D02*
X00782131D01*
X00772846Y00970612D02*
X00774274Y00971326D01*
X00772131Y00969183D02*
X00772846Y00970612D01*
X00772131Y00967041D02*
Y00969183D01*
Y00967041D02*
X00772846Y00965612D01*
X00773560Y00964898*
X00772131Y00984898D02*
X00782131D01*
X00772131Y00978469D02*
X00779989D01*
X00781417Y00979183*
X00782131Y00980612*
Y00982755*
X00781417Y00984183D02*
X00782131Y00982755D01*
X00780703Y00984898D02*
X00781417Y00984183D01*
X00772131Y00992041D02*
X00782131D01*
X00772846Y00992755D02*
X00773560Y00992041D01*
X00772131Y00994183D02*
X00772846Y00992755D01*
X00772131Y00994183D02*
Y00996326D01*
X00772846Y00997755*
X00774274Y00998469*
X00782131*
X00772846Y00999183D02*
X00774274Y00998469D01*
X00772131Y01000612D02*
X00772846Y00999183D01*
X00772131Y01000612D02*
Y01002755D01*
X00772846Y01004183*
X00774274Y01004898*
X00782131*
X00767131Y01012041D02*
X00782131D01*
X00772131Y01013469D02*
X00772846Y01012041D01*
X00772131Y01013469D02*
Y01016326D01*
X00772846Y01017755*
X00773560Y01018469*
X00774989Y01019183*
X00779274*
X00780703Y01018469*
X00781417Y01017755*
X00782131Y01016326*
Y01013469D02*
Y01016326D01*
X00781417Y01012041D02*
X00782131Y01013469D01*
G54D27*
X01058846Y01021041D02*
X01074846Y01005041D01*
X01117346*
X01058846Y01065541D02*
X01074346Y01081041D01*
X01117346*
X01087346Y01030541D02*
X01117346D01*
X01087346Y01056041D02*
X01117346D01*
X00839346Y01022041D02*
Y01037041D01*
X00807346Y01022041D02*
Y01037041D01*
X00809346Y01067041D02*
X00839346Y01037041D01*
X00777346Y01067041D02*
X00807346Y01037041D01*
X00775346Y01022041D02*
Y01037041D01*
X00745346Y01067041D02*
X00775346Y01037041D01*
G54D28*
X00673414Y00847716D02*
X00666750D01*
Y00842717*
X00670081*
X00666750*
Y00837719*
X00681744D02*
X00678412D01*
X00676746Y00839385*
Y00842717*
X00678412Y00844383*
X00681744*
X00683410Y00842717*
Y00841051*
X00676746*
X00691741Y00837719D02*
X00688409D01*
X00686743Y00839385*
Y00842717*
X00688409Y00844383*
X00691741*
X00693407Y00842717*
Y00841051*
X00686743*
X00703404Y00847716D02*
Y00837719D01*
X00698406*
X00696739Y00839385*
Y00842717*
X00698406Y00844383*
X00703404*
X00706736Y00847716D02*
Y00837719D01*
X00711735*
X00713401Y00839385*
Y00841051*
Y00842717*
X00711735Y00844383*
X00706736*
X00718399D02*
X00721731D01*
X00723397Y00842717*
Y00837719*
X00718399*
X00716733Y00839385*
X00718399Y00841051*
X00723397*
X00733394Y00844383D02*
X00728396D01*
X00726730Y00842717*
Y00839385*
X00728396Y00837719*
X00733394*
X00736727D02*
Y00847716D01*
Y00841051D02*
X00741725Y00844383D01*
X00736727Y00841051D02*
X00741725Y00837719D01*
X00666750Y00822960D02*
X00671747D01*
X00673414Y00824625*
X00671747Y00826291*
X00668415*
X00666750Y00827957*
X00668415Y00829623*
X00673414*
X00681744Y00822960D02*
X00678412D01*
X00676746Y00824625*
Y00827957*
X00678412Y00829623*
X00681744*
X00683410Y00827957*
Y00826291*
X00676746*
X00686743Y00829623D02*
Y00822960D01*
Y00826291*
X00688409Y00827957*
X00690075Y00829623*
X00691741*
X00696739D02*
X00700072Y00822960D01*
X00703404Y00829623*
X00708402Y00822960D02*
X00711735D01*
X00713401Y00824625*
Y00827957*
X00711735Y00829623*
X00708402*
X00706736Y00827957*
Y00824625*
X00708402Y00822960*
X00613410Y00960909D02*
Y00970906D01*
X00618407*
X00620074Y00969239*
Y00965907*
X00618407Y00964241*
X00613410*
X00623406Y00967573D02*
Y00960909D01*
Y00964241*
X00625072Y00965907*
X00626738Y00967573*
X00628404*
X00638401Y00960909D02*
X00635069D01*
X00633403Y00962575*
Y00965907*
X00635069Y00967573*
X00638401*
X00640067Y00965907*
Y00964241*
X00633403*
X00643399Y00960909D02*
X00648398D01*
X00650064Y00962575*
X00648398Y00964241*
X00645066*
X00643399Y00965907*
X00645066Y00967573*
X00650064*
X00653396Y00960909D02*
X00658394D01*
X00660061Y00962575*
X00658394Y00964241*
X00655062*
X00653396Y00965907*
X00655062Y00967573*
X00660061*
X00663393D02*
Y00962575D01*
X00665059Y00960909*
X00670057*
Y00967573*
X00673390D02*
Y00960909D01*
Y00964241*
X00675056Y00965907*
X00676722Y00967573*
X00678388*
X00688385Y00960909D02*
X00685053D01*
X00683387Y00962575*
Y00965907*
X00685053Y00967573*
X00688385*
X00690051Y00965907*
Y00964241*
X00683387*
X00613410Y00946150D02*
X00618407D01*
X00620074Y00947815*
X00618407Y00949481*
X00615075*
X00613410Y00951147*
X00615075Y00952813*
X00620074*
X00628404Y00946150D02*
X00625072D01*
X00623406Y00947815*
Y00951147*
X00625072Y00952813*
X00628404*
X00630070Y00951147*
Y00949481*
X00623406*
X00633403Y00946150D02*
Y00952813D01*
X00638401*
X00640067Y00951147*
Y00946150*
X00643399D02*
X00648398D01*
X00650064Y00947815*
X00648398Y00949481*
X00645066*
X00643399Y00951147*
X00645066Y00952813*
X00650064*
X00655062Y00946150D02*
X00658394D01*
X00660061Y00947815*
Y00951147*
X00658394Y00952813*
X00655062*
X00653396Y00951147*
Y00947815*
X00655062Y00946150*
X00663393Y00952813D02*
Y00946150D01*
Y00949481*
X00665059Y00951147*
X00666725Y00952813*
X00668391*
X00833120Y00694684D02*
Y00679450D01*
Y00687066*
X00843276*
Y00694684*
Y00679450*
X00848354D02*
Y00689606D01*
X00853432Y00694684*
X00858511Y00689606*
Y00679450*
Y00687066*
X00848354*
X00873746Y00692145D02*
X00871207Y00694684D01*
X00866128*
X00863589Y00692145*
Y00681988*
X00866128Y00679450*
X00871207*
X00873746Y00681988*
X00878824Y00694684D02*
Y00679450D01*
Y00684527*
X00888981Y00694684*
X00881363Y00687066*
X00888981Y00679450*
X00904216Y00692145D02*
X00901677Y00694684D01*
X00896599*
X00894059Y00692145*
Y00689606*
X00896599Y00687066*
X00901677*
X00904216Y00684527*
Y00681988*
X00901677Y00679450*
X00896599*
X00894059Y00681988*
X00916912Y00679450D02*
X00911833D01*
X00909294Y00681988*
Y00687066*
X00911833Y00689606*
X00916912*
X00919451Y00687066*
Y00684527*
X00909294*
X00924529Y00679450D02*
Y00689606D01*
X00932147*
X00934686Y00687066*
Y00679450*
X00939764D02*
X00947382D01*
X00949921Y00681988*
X00947382Y00684527*
X00942304*
X00939764Y00687066*
X00942304Y00689606*
X00949921*
X00957539Y00679450D02*
X00962617D01*
X00965156Y00681988*
Y00687066*
X00962617Y00689606*
X00957539*
X00955000Y00687066*
Y00681988*
X00957539Y00679450*
X00970235Y00689606D02*
Y00679450D01*
Y00684527*
X00972774Y00687066*
X00975313Y00689606*
X00977852*
M02*