%FSDAX44Y44*%
%MOMM*%
%SFA1B1*%

%IPPOS*%
%ADD9500C,0.711199*%
%ADD9501C,0.761998*%
%ADD9502C,0.999998*%
%ADD9503C,1.499997*%
%LNpcb1-roundholes-1*%
%LPD*%
G54D9500*
X00857250Y00759460D03*
X00941070Y00755650D03*
X01003300Y00687070D03*
X01094740Y00889000D03*
G54D9501*
X00833247Y00770890D03*
X00884047D03*
X01024001Y00778764D03*
Y00753364D03*
Y00727964D03*
Y00702564D03*
X01176401D03*
Y00727964D03*
Y00753364D03*
Y00778764D03*
X00770763Y00771017D03*
X00787400Y00741045D03*
X00773430Y00721614D03*
X00719963Y00771017D03*
X00655320D03*
X00604520D03*
X00640334Y00856488D03*
Y00881888D03*
Y00907288D03*
X00702893Y00900581D03*
X00728293D03*
X00753693D03*
X00728293Y00868680D03*
X00790920Y00797453D03*
X00791210Y00948690D03*
X00787400Y01030963D03*
X00740791Y01030859D03*
X00689991D03*
X00643890Y01028700D03*
X00645160Y00989330D03*
X00744474Y01083818D03*
Y01109218D03*
Y01134618D03*
X00776351Y01134745D03*
Y01109345D03*
Y01083945D03*
X00808355Y01083818D03*
Y01109218D03*
Y01134618D03*
X00840486Y01134364D03*
X00840105Y01108583D03*
X01037400Y01090463D03*
X01048385Y01057910D03*
X01024001Y01058164D03*
Y01032764D03*
X01048385Y01032510D03*
X01073785D03*
Y01057910D03*
X01100784Y01057402D03*
X01105662Y01032129D03*
X01024001Y01007364D03*
Y00981964D03*
Y00956564D03*
Y00931164D03*
Y00905764D03*
Y00880364D03*
Y00854964D03*
X01075400Y00813963D03*
X01176401Y00804164D03*
Y00829564D03*
Y00854964D03*
Y00880364D03*
Y00905764D03*
X01156081D03*
X01176401Y00931164D03*
X00909955Y00796798D03*
G54D9502*
X00811530Y01008380D03*
G54D9503*
X01075835Y00692293D03*
X01122680Y00708660D03*
X01075835Y00786293D03*
M02*